<svg className="clave" xmlns="http://www.w3.org/2000/svg" viewBox="0 0 91 156">
  <defs>
    <style>
      .clave {
        width: 40%;
        height: 90%;
        fill: #b8860b;
        animation-name: clave1;
        animation-duration: 4s;
        animation-timing-function: ease;
        animation-iteration-count: infinite;
      }

      @keyframes clave1 {
        0% {
          transform: translateY(-8px) translateX(8px);
        }

        25% {
          fill: black;
        }

        50% {
          transform: translateY(-298px) translateX(-38px);
          fill: black;
          opacity: 0;
          width: 60%;
          height: 180%;
        }

        100% {
          opacity: 0;
        }
      }
    </style>
  </defs>
  <title>Clave de sol</title>
  <path
    d="M47.453,75.061a19.892,19.892,0,0,1,3-.23C60.228,74.754,67.078,83.5,67,93.385c0,8.2-4.925,14.261-12.239,17.79l3.079,15.563a19.365,19.365,0,0,1,.23,3.527c0,7.819-4.926,12.881-13.084,13.724-6.389.689-13.7-3.681-14.394-10.582-0.461-4.6,2.693-9.352,7.158-9.891,4.079-.459,7.775,3.145,7.928,7.363,0.23,5.9-5.618,7.819-7.85,7.283,0.23,2.607,4.771,3.6,6.928,3.374,7.156-.844,10.543-5.214,10.773-11.426a24.464,24.464,0,0,0-.614-5.6L52.3,112.248a26.431,26.431,0,0,1-7.158,1c-13.239,0-24.015-11.194-25.093-25.684C18.9,72.608,30.982,61.492,40.295,51.985a70.743,70.743,0,0,1-2.233-17.021c0-6.978,3.232-21.239,10.546-23.922,3.154-1.228,9,14.184,8.849,22.694C57.3,44.471,52.378,54.743,44.835,62.18Zm-0.694,9.124c-4.309,1.3-8,5.75-7.927,10.5,0,4.063,2.693,6.669,6.081,8.279a0.8,0.8,0,0,1,.538.768,0.915,0.915,0,0,1-1.077.767A14.782,14.782,0,0,1,34.444,90.4c0-6.287,5-12.649,10.621-14.72L42.757,64.1C34.6,71.3,25.592,79.893,25.515,91.775c0,11.962,10.162,19.322,21.169,18.863a19.714,19.714,0,0,0,5.156-.921ZM54.3,27.3c-0.077-2.454-1.541-4.906-4.234-4.906-6.464,1.3-8.774,12.341-8.927,17.862a41.129,41.129,0,0,0,1.308,9.661C48.608,44.623,54.611,35.96,54.3,27.3Zm0,81.654a14.14,14.14,0,0,0,7.542-12.958C61.306,88.94,56.072,83.8,49.222,83.878Z" />
</svg>
