<svg xmlns="http://www.w3.org/2000/svg" viewBox="0 0 82 112" className="corchea">
  <defs>
    <style>
      .corchea {
        width: 20%;
        height: 80%;
        fill: #b8860b;
        overflow: hidden;
        animation-name: corchea;
        animation-duration: 6s;
        animation-timing-function: ease-out;
        animation-iteration-count: infinite;
      }

      @keyframes corchea {
        0% {
          transform: translateY(-8px) translateX(-48px);
        }

        25% {
          fill: black;
        }

        50% {
          transform: translateY(-228px) translateX(-178px);
          fill: black;
          opacity: 0;
          width: 60%;
          height: 180%;
        }

        100% {
          opacity: 0;
        }
      }
    </style>
  </defs>
  <title>Corchea</title>

  <path
    d="M45.029,10.01c0.654,4.653.747,10.519,5.6,16.385,3.737,4.468,7.941,8.47,10.837,12.1,3.83,4.749,6.538,10.707,6.538,16.758,0,9.682-4.67,19.269-7.847,24.576H58.667c2.243-5.027,6.726-13.313,6.352-22.156a24.6,24.6,0,0,0-5.23-14.15c-3.55-4.562-9.53-8.193-14.76-8.565V87.744c0,4.19-2.522,8.006-6.165,10.8a20.883,20.883,0,0,1-12.331,4.468,10.6,10.6,0,0,1-6.726-2.235A7.271,7.271,0,0,1,17,94.912c0-3.816,2.615-7.635,6.165-10.427,3.55-2.887,8.033-4.748,11.77-4.748,3.271,0,6.072.466,7.754,2.047V10.01h2.336Z" />
</svg>
