    <svg
      version="1.0"
      xmlns="http://www.w3.org/2000/svg"
      width="192.000000pt"
      height="192.000000pt"
      viewBox="0 0 192.000000 192.000000"
      preserveAspectRatio="xMidYMid meet"
    >
      <g
        transform="translate(0.000000,192.000000) scale(0.100000,-0.100000)"
        stroke="none"
      >
        <path
          d="M925 1614 c-11 -3 -38 -9 -60 -15 -22 -6 -47 -11 -55 -13 -48 -9
-147 -57 -207 -98 -30 -21 -56 -38 -59 -38 -3 0 -26 -21 -52 -46 -26 -26 -62
-53 -81 -61 -23 -10 -38 -26 -49 -54 -10 -25 -21 -38 -31 -37 -10 2 -15 -4
-15 -14 1 -10 -4 -18 -10 -18 -14 0 -46 -62 -46 -90 0 -10 -7 -45 -15 -77 -16
-65 -23 -100 -24 -125 -1 -26 -19 -22 -24 5 -3 12 -4 -22 -3 -76 2 -54 8 -103
14 -109 5 -5 8 -25 5 -43 -8 -49 15 -130 49 -172 17 -21 43 -63 59 -93 17 -30
40 -70 52 -89 28 -44 157 -175 164 -167 3 3 -23 34 -59 68 -36 35 -84 94 -107
131 -47 78 -107 198 -103 210 1 4 -3 26 -8 50 -6 23 -13 58 -16 77 -2 19 -7
43 -10 54 -4 13 -2 17 7 14 8 -3 17 -20 20 -39 7 -33 45 -167 70 -241 7 -21
16 -38 21 -38 4 0 8 -6 8 -13 0 -20 37 -60 42 -46 2 7 26 -12 53 -41 28 -30
58 -61 67 -71 9 -10 32 -26 50 -35 18 -9 37 -23 41 -30 4 -7 27 -18 50 -24 23
-6 69 -26 102 -43 l60 -32 175 0 c145 0 185 3 230 19 232 79 375 222 452 451
33 101 33 279 0 380 -64 192 -175 323 -344 407 -72 36 -144 58 -192 60 -19 1
-33 4 -31 8 8 13 -48 18 -100 10 -27 -4 -55 -4 -60 1 -10 7 -67 -3 -145 -27
-24 -7 -24 -6 -10 12 25 32 44 43 73 44 15 0 27 4 27 9 0 6 8 10 18 10 9 0 42
3 72 7 30 3 73 6 95 5 33 -2 37 1 27 11 -20 20 -168 23 -222 4 -25 -8 -46 -11
-48 -6 -2 5 -10 6 -18 3 -20 -8 -17 14 4 22 33 14 203 34 248 29 41 -4 44 -3
31 11 -11 11 -35 15 -89 14 -40 -1 -82 -3 -93 -5z m200 -226 c141 -30 306
-158 378 -295 78 -149 88 -325 28 -478 -154 -394 -656 -502 -952 -205 -118
119 -173 249 -173 410 0 201 97 379 268 491 134 88 281 113 451 77z"
        />
        <g className="icon-you">
        <path
          d="M740 1073 c-64 -12 -85 -83 -78 -272 5 -141 16 -173 62 -193 46 -19
513 -19 549 1 44 23 52 61 52 238 0 148 -2 164 -21 190 -11 15 -32 31 -45 34
-27 8 -479 9 -519 2z m276 -172 c82 -45 112 -71 84 -71 -7 0 -48 -20 -92 -45
-44 -25 -82 -45 -84 -45 -2 0 -4 47 -4 105 0 58 2 105 4 105 2 0 43 -22 92
-49z"
        />
        <path d="M1018 1503 c6 -2 18 -2 25 0 6 3 1 5 -13 5 -14 0 -19 -2 -12 -5z" />
        <path
          d="M1200 1501 c0 -6 5 -13 12 -17 7 -5 8 -3 3 6 -9 14 22 7 67 -16 39
-20 44 -17 18 11 -17 18 -34 25 -62 25 -21 0 -38 -4 -38 -9z"
        />
        <path d="M1100 1496 c0 -2 7 -7 16 -10 8 -3 12 -2 9 4 -6 10 -25 14 -25 6z" />
        </g>
        <path
          d="M210 565 c0 -5 5 -17 10 -25 5 -8 10 -10 10 -5 0 6 -5 17 -10 25 -5
8 -10 11 -10 5z"
        />
        <path
          d="M230 516 c0 -12 59 -134 72 -146 7 -8 24 -31 36 -51 26 -43 57 -73
46 -45 -3 9 -10 16 -15 16 -5 0 -9 8 -9 18 0 11 -9 27 -19 36 -10 10 -24 37
-30 62 -7 28 -25 59 -46 80 -19 19 -35 33 -35 30z"
        />
        <path
          d="M564 161 c10 -11 50 -36 89 -56 40 -20 63 -29 52 -20 -11 9 -41 27
-66 40 -25 13 -51 31 -58 39 -8 9 -18 16 -24 16 -5 0 -2 -9 7 -19z"
        />
      </g>
    </svg>
