   <svg
      version="1.0"
      xmlns="http://www.w3.org/2000/svg"
      width="192.000000pt"
      height="192.000000pt"
      viewBox="0 0 192.000000 192.000000"
      preserveAspectRatio="xMidYMid meet"
    >
      <g
        transform="translate(0.000000,192.000000) scale(0.100000,-0.100000)"
        stroke="none"
      >
        <path
          d="M865 1641 c-67 -18 -135 -43 -173 -65 -35 -20 -66 -36 -68 -36 -3 0
-17 -11 -32 -25 -15 -14 -32 -25 -37 -25 -6 0 -31 -20 -55 -45 -24 -24 -59
-52 -77 -60 -20 -10 -41 -31 -50 -51 -9 -19 -22 -34 -29 -34 -17 0 -74 -92
-74 -121 0 -13 -9 -55 -20 -94 -11 -38 -20 -82 -20 -97 0 -34 -17 -46 -23 -16
-9 41 1 -185 11 -262 11 -84 24 -119 63 -170 14 -19 38 -57 53 -85 35 -64 86
-139 123 -177 43 -45 161 -132 226 -166 73 -39 65 -24 -11 19 -161 91 -314
269 -375 439 -21 56 -60 240 -53 247 9 10 26 -8 26 -29 0 -26 45 -194 67 -250
30 -76 60 -117 83 -112 8 2 35 -21 60 -51 47 -55 168 -145 196 -145 9 0 44
-14 78 -31 98 -50 128 -56 281 -52 163 3 228 18 345 75 67 33 102 58 165 122
89 90 138 171 177 296 46 150 27 343 -49 494 -118 232 -357 375 -642 382 -81
1 -116 -2 -159 -17 -68 -24 -66 -24 -46 5 24 37 116 61 299 79 25 2 22 5 -23
15 -68 15 -137 15 -185 -2 -38 -14 -77 -11 -77 5 0 5 10 11 23 14 82 19 112
23 137 20 16 -2 42 0 57 4 15 4 40 4 55 0 20 -5 25 -4 21 6 -12 33 -129 31
-268 -4z m311 -221 c186 -51 351 -216 408 -409 24 -82 21 -241 -5 -327 -43
-140 -137 -260 -262 -338 -113 -69 -160 -81 -312 -80 -108 0 -140 4 -190 22
-181 67 -332 233 -380 419 -19 73 -19 222 0 293 25 94 83 195 152 265 157 159
371 215 589 155z"
        />
        <g className="icon-inst">
        <path 
          d="M773 1185 c-18 -7 -42 -29 -53 -47 -19 -31 -20 -46 -18 -271 l3 -239
37 -34 38 -34 232 0 c224 0 233 1 265 22 58 40 63 62 63 298 0 227 -3 241 -55
290 -27 25 -27 25 -253 27 -179 2 -234 0 -259 -12z m488 -54 c24 -19 24 -23
27 -223 4 -245 1 -263 -41 -288 -29 -18 -51 -20 -235 -20 l-204 0 -34 34 -34
34 0 210 0 210 26 31 26 31 223 0 c204 0 225 -2 246 -19z"
        />
        <path
          d="M1171 1076 c-9 -11 -10 -20 -1 -36 13 -24 38 -23 53 1 23 37 -25 68
-52 35z"
        />
        <path
          d="M934 1021 c-93 -56 -111 -184 -36 -253 40 -38 69 -50 118 -50 92 0
163 70 164 160 0 53 -18 89 -65 131 -31 27 -43 31 -93 31 -38 0 -67 -6 -88
-19z m148 -46 c45 -18 65 -117 32 -163 -20 -29 -66 -52 -105 -52 -23 0 -42 10
-71 40 -38 38 -40 43 -35 86 10 92 83 128 179 89z"
        />
        <path d="M1193 1623 c9 -2 23 -2 30 0 6 3 -1 5 -18 5 -16 0 -22 -2 -12 -5z" />
        <path
          d="M1258 1551 c-30 -5 -36 -9 -28 -21 8 -12 12 -13 19 -2 7 11 16 10 49
-7 54 -28 57 -27 32 9 -12 17 -24 29 -28 29 -4 -1 -24 -5 -44 -8z"
        />
      </g>
        <path d="M1048 1543 c7 -3 16 -2 19 1 4 3 -2 6 -13 5 -11 0 -14 -3 -6 -6z" />
        <path
          d="M1111 1546 c2 -2 15 -9 29 -16 23 -12 24 -12 11 3 -7 10 -20 17 -29
17 -8 0 -13 -2 -11 -4z"
        />
        <path
          d="M230 554 c0 -15 80 -172 93 -183 9 -7 17 -19 17 -25 0 -16 49 -70 57
-63 3 4 -1 15 -10 25 -10 10 -17 22 -17 25 0 4 -11 25 -25 47 -14 22 -25 46
-25 54 0 23 -25 63 -58 94 -18 17 -32 28 -32 26z"
        />
      </g>
    </svg> 
    
       