    <svg
      version="1.0"
      xmlns="http://www.w3.org/2000/svg"
      width="192.000000pt"
      height="192.000000pt"
      viewBox="0 0 192.000000 192.000000"
      preserveAspectRatio="xMidYMid meet"
    >
      <g
        transform="translate(0.000000,192.000000) scale(0.100000,-0.100000)"
        stroke="none"
      >
        <path 
          d="M860 1645 c-52 -14 -127 -40 -165 -59 -63 -31 -82 -43 -132 -86 -7
-5 -16 -10 -20 -10 -4 0 -28 -20 -53 -44 -25 -24 -61 -53 -80 -63 -19 -11 -43
-35 -53 -54 -10 -19 -22 -33 -28 -31 -5 1 -12 -6 -16 -15 -4 -10 -12 -22 -20
-26 -7 -4 -13 -14 -13 -22 0 -7 -5 -15 -12 -17 -6 -2 -11 -21 -10 -43 1 -21
-2 -43 -7 -49 -13 -17 -31 -101 -31 -145 0 -43 -24 -59 -33 -23 -3 9 -3 -7 -1
-36 2 -30 6 -58 9 -62 3 -5 1 -20 -5 -34 -7 -19 -6 -29 6 -40 9 -10 13 -28 10
-52 -5 -50 25 -155 52 -182 12 -12 33 -45 48 -73 41 -81 100 -163 161 -223 31
-31 59 -54 61 -52 2 3 -23 31 -55 63 -73 72 -129 156 -189 283 -13 28 -63 241
-64 274 0 24 31 -22 40 -58 51 -204 85 -294 128 -336 8 -8 12 -9 8 -2 -17 30
15 7 70 -51 59 -63 187 -161 197 -151 3 3 45 -14 94 -38 l88 -43 170 0 c157 1
176 3 250 28 216 72 367 223 444 442 21 60 24 89 25 205 1 123 -1 142 -27 216
-47 138 -119 242 -222 321 -81 61 -175 107 -265 128 -41 10 -84 22 -95 27 -33
15 -245 3 -280 -16 -35 -19 -45 -20 -45 -6 0 50 146 95 300 93 l45 -1 -30 14
c-36 16 -200 13 -231 -4 -25 -13 -64 -5 -64 13 0 17 110 36 227 38 71 2 87 5
77 15 -21 21 -158 14 -264 -13z m287 -209 c218 -58 397 -242 442 -454 15 -72
13 -204 -4 -276 -49 -207 -227 -383 -445 -441 -71 -19 -200 -19 -275 0 -217
55 -397 234 -449 446 -77 315 127 647 449 729 51 13 227 11 282 -4z"
        />
        <g className="icon-face">
        <path 
          d="M975 1141 c-41 -17 -59 -50 -63 -117 l-4 -64 -34 0 -34 0 0 -60 0
-60 35 0 35 0 0 -160 0 -160 60 0 60 0 0 160 0 160 45 0 c49 0 50 2 58 83 l3
37 -53 0 -53 0 0 40 c0 44 18 60 69 60 30 0 31 1 31 45 l0 45 -67 -1 c-38 0
-77 -4 -88 -8z"
        />
        <path d="M1225 1551 c-3 -5 -2 -12 3 -15 5 -3 9 1 9 9 0 17 -3 19 -12 6z" />
        <path
          d="M1265 1550 c-18 -8 -18 -9 -2 -9 10 -1 32 -8 50 -17 l32 -17 -24 27
c-27 28 -27 28 -56 16z"
        />
        
         </g>
        <path
          d="M240 500 c0 -18 47 -105 64 -119 9 -8 16 -19 16 -25 0 -16 59 -84 60
-68 0 6 -4 12 -10 12 -5 0 -10 6 -10 14 0 8 -11 27 -24 43 -14 16 -28 43 -31
59 -10 43 -38 94 -52 94 -7 0 -13 -5 -13 -10z"
        />
        <path
          d="M550 187 c0 -3 12 -12 26 -22 15 -9 23 -12 20 -6 -7 11 -46 35 -46
28z"
        />
       
        <path
          d="M610 146 c0 -8 91 -57 99 -54 5 2 -15 15 -45 31 -30 15 -54 25 -54
23z"
        />
        
      </g>
    </svg>
