<svg xmlns="http://www.w3.org/2000/svg" viewBox="0 0 116 156" className="semi-corchea">
  <defs>
    <style>
      .semi-corchea{
        width: 20%;
        height: 80%;
        fill: #b8860b;
        overflow: hidden;
        animation-name: semi;
        animation-duration: 6s;
        animation-timing-function: linear;
        animation-iteration-count: infinite;
      }

      @keyframes semi {
        0% {
          transform: translateY(-8px) translateX(-48px);
        }

        25% {
          fill: black;
        }

        50% {
          transform: translateY(-298px) translateX(-228px);
          fill: #f3f2a6;
          opacity: 0;
          width: 60%;
          height: 180%;
        }

        100% {
          opacity: 0;
        }
      }
    </style>
  </defs>
  <title>Semi Corchea</title>
  <path
    d="M55.859,123.477c0,6.168-3.677,11.786-8.991,15.9a30.281,30.281,0,0,1-17.981,6.577,15.377,15.377,0,0,1-9.808-3.29,10.744,10.744,0,0,1-4.088-8.632c0-5.619,3.814-11.24,8.991-15.349,5.177-4.25,11.715-6.99,17.163-6.99,4.77,0,8.855.685,11.308,3.014V9.044h3.406c0.272,4.933,1.089,11.786,6.948,17.131,6.674,5.891,12.8,11.786,17.028,17.131,5.585,6.99,9.534,15.759,9.534,24.667A50.89,50.89,0,0,1,87.462,81.54,33.331,33.331,0,0,1,91,96.753a46.03,46.03,0,0,1-6.812,24.121H82.013c2.86-4.386,6.266-14.8,6-21.38-0.275-7.263-.818-11.51-5.449-17.267-5.313-6.577-19.073-13.43-26.7-18.776v60.027ZM85.827,69.344c-0.272-7.263-3.814-12.882-8.445-18.639-5.313-6.578-13.9-12.059-21.523-16.445,0.272,9.867,6.674,19.872,12.532,25.216,6.674,5.892,9.944,9.045,13.894,13.978a48.009,48.009,0,0,1,3.27,4.662A65.7,65.7,0,0,0,85.827,69.344Z" />
</svg>
